/* XPM */
static char * blarg_xpm[] = {
"16 7 2 1",
"* c #000000",
". c #ffffff",
"**..*...........",
"*.*.*...........",
"**..*..**.**..**",
"*.*.*.*.*.*..*.*",
"**..*..**.*...**",
"...............*",
".............**."
}
